<svg width="50" height="2312" viewBox="0 0 50 2312" fill="none" xmlns="http://www.w3.org/2000/svg">
<line x1="25.5" y1="24.9998" x2="26.4861" y2="2293" stroke="#BFBFBF" stroke-dasharray="2 2"/>
<line x1="25.5" y1="24.9998" x2="26.4861" y2="2293" stroke="black" stroke-opacity="0.2" stroke-dasharray="2 2"/>
<circle cx="25" cy="1648" r="25" fill="#89F8DA"/>
<path d="M24.3977 1656.24C23.2273 1656.24 22.1932 1656.03 21.2955 1655.62C20.4034 1655.2 19.7074 1654.62 19.2074 1653.89C18.7074 1653.15 18.4602 1652.31 18.4659 1651.36C18.4602 1650.62 18.6051 1649.94 18.9006 1649.32C19.196 1648.69 19.5994 1648.16 20.1108 1647.74C20.6278 1647.32 21.2045 1647.05 21.8409 1646.93V1646.83C21.0057 1646.61 20.3409 1646.14 19.8466 1645.42C19.3523 1644.7 19.108 1643.87 19.1136 1642.94C19.108 1642.06 19.3324 1641.26 19.7869 1640.57C20.2415 1639.87 20.8665 1639.32 21.6619 1638.91C22.4631 1638.51 23.375 1638.31 24.3977 1638.31C25.4091 1638.31 26.3125 1638.51 27.108 1638.91C27.9034 1639.32 28.5284 1639.87 28.983 1640.57C29.4432 1641.26 29.6761 1642.06 29.6818 1642.94C29.6761 1643.87 29.4233 1644.7 28.9233 1645.42C28.429 1646.14 27.7727 1646.61 26.9545 1646.83V1646.93C27.5852 1647.05 28.1534 1647.32 28.6591 1647.74C29.1648 1648.16 29.5682 1648.69 29.8693 1649.32C30.1705 1649.94 30.3239 1650.62 30.3295 1651.36C30.3239 1652.31 30.0682 1653.15 29.5625 1653.89C29.0625 1654.62 28.3665 1655.2 27.4744 1655.62C26.5881 1656.03 25.5625 1656.24 24.3977 1656.24ZM24.3977 1654.36C25.1875 1654.36 25.8693 1654.24 26.4432 1653.98C27.017 1653.72 27.4602 1653.36 27.7727 1652.9C28.0852 1652.43 28.2443 1651.89 28.25 1651.26C28.2443 1650.6 28.0739 1650.02 27.7386 1649.51C27.4034 1649.01 26.946 1648.61 26.3665 1648.32C25.7926 1648.03 25.1364 1647.89 24.3977 1647.89C23.6534 1647.89 22.9886 1648.03 22.4034 1648.32C21.8239 1648.61 21.3665 1649.01 21.0312 1649.51C20.7017 1650.02 20.5398 1650.6 20.5455 1651.26C20.5398 1651.89 20.6903 1652.43 20.9972 1652.9C21.3097 1653.36 21.7557 1653.72 22.3352 1653.98C22.9148 1654.24 23.6023 1654.36 24.3977 1654.36ZM24.3977 1646.08C25.0227 1646.08 25.5767 1645.95 26.0597 1645.7C26.5483 1645.45 26.9318 1645.11 27.2102 1644.66C27.4886 1644.21 27.6307 1643.68 27.6364 1643.08C27.6307 1642.49 27.4915 1641.97 27.2188 1641.54C26.946 1641.09 26.5682 1640.75 26.0852 1640.51C25.6023 1640.27 25.0398 1640.15 24.3977 1640.15C23.7443 1640.15 23.1733 1640.27 22.6847 1640.51C22.196 1640.75 21.8182 1641.09 21.5511 1641.54C21.2841 1641.97 21.1534 1642.49 21.1591 1643.08C21.1534 1643.68 21.2869 1644.21 21.5597 1644.66C21.8381 1645.11 22.2216 1645.45 22.7102 1645.7C23.1989 1645.95 23.7614 1646.08 24.3977 1646.08Z" fill="black"/>
<circle cx="25" cy="2059" r="25" fill="#89F8DA"/>
<path d="M25.3636 2050.31C26.0795 2050.31 26.7955 2050.45 27.5114 2050.72C28.2273 2050.98 28.8807 2051.43 29.4716 2052.05C30.0625 2052.66 30.5369 2053.5 30.8949 2054.56C31.2528 2055.62 31.4318 2056.95 31.4318 2058.56C31.4318 2060.11 31.2841 2061.49 30.9886 2062.69C30.6989 2063.89 30.2784 2064.9 29.7273 2065.72C29.1818 2066.55 28.517 2067.17 27.733 2067.6C26.9545 2068.03 26.0739 2068.24 25.0909 2068.24C24.1136 2068.24 23.2415 2068.05 22.4744 2067.66C21.7131 2067.27 21.0881 2066.72 20.5994 2066.03C20.1165 2065.33 19.8068 2064.52 19.6705 2063.6H21.75C21.9375 2064.4 22.3097 2065.07 22.8665 2065.59C23.429 2066.11 24.1705 2066.36 25.0909 2066.36C26.4375 2066.36 27.5 2065.78 28.2784 2064.6C29.0625 2063.42 29.4545 2061.76 29.4545 2059.61H29.3182C29 2060.09 28.6222 2060.5 28.1847 2060.85C27.7472 2061.2 27.2614 2061.46 26.7273 2061.65C26.1932 2061.84 25.625 2061.93 25.0227 2061.93C24.0227 2061.93 23.1051 2061.68 22.2699 2061.19C21.4403 2060.69 20.7756 2060.01 20.2756 2059.14C19.7812 2058.26 19.5341 2057.26 19.5341 2056.14C19.5341 2055.07 19.7727 2054.09 20.25 2053.2C20.733 2052.31 21.4091 2051.6 22.2784 2051.07C23.1534 2050.55 24.1818 2050.29 25.3636 2050.31ZM25.3636 2052.18C24.6477 2052.18 24.0028 2052.36 23.429 2052.72C22.8608 2053.07 22.4091 2053.55 22.0739 2054.15C21.7443 2054.75 21.5795 2055.41 21.5795 2056.14C21.5795 2056.86 21.7386 2057.53 22.0568 2058.12C22.3807 2058.71 22.821 2059.18 23.3778 2059.54C23.9403 2059.88 24.5795 2060.06 25.2955 2060.06C25.8352 2060.06 26.3381 2059.95 26.804 2059.74C27.2699 2059.53 27.6761 2059.23 28.0227 2058.86C28.375 2058.49 28.6506 2058.07 28.8494 2057.59C29.0483 2057.12 29.1477 2056.62 29.1477 2056.1C29.1477 2055.42 28.983 2054.78 28.6534 2054.18C28.3295 2053.59 27.8807 2053.11 27.3068 2052.74C26.7386 2052.37 26.0909 2052.18 25.3636 2052.18Z" fill="black"/>
<circle cx="25" cy="25" r="25" fill="#89F8DA"/>
<path d="M25.736 33C25.48 33 25.256 32.912 25.064 32.736C24.888 32.56 24.8 32.336 24.8 32.064V16.464L22.4 17.304C22.224 17.384 22.064 17.424 21.92 17.424C21.648 17.424 21.424 17.336 21.248 17.16C21.072 16.984 20.984 16.768 20.984 16.512C20.984 16.32 21.024 16.144 21.104 15.984C21.2 15.824 21.36 15.704 21.584 15.624L25.28 14.352C25.36 14.32 25.44 14.296 25.52 14.28C25.616 14.248 25.696 14.232 25.76 14.232C26.032 14.232 26.248 14.328 26.408 14.52C26.584 14.696 26.672 14.912 26.672 15.168V32.064C26.672 32.336 26.584 32.56 26.408 32.736C26.232 32.912 26.008 33 25.736 33Z" fill="black"/>
<circle cx="26.5" cy="661.5" r="23.5" fill="#89F8DA"/>
<path d="M29.752 670C29.512 670 29.304 669.912 29.128 669.736C28.952 669.56 28.864 669.336 28.864 669.064V665.512H20.272C20.016 665.512 19.8 665.432 19.624 665.272C19.464 665.096 19.368 664.896 19.336 664.672C19.32 664.448 19.384 664.24 19.528 664.048L29.032 651.616C29.112 651.504 29.208 651.416 29.32 651.352C29.448 651.272 29.608 651.232 29.8 651.232C30.056 651.232 30.264 651.328 30.424 651.52C30.6 651.696 30.688 651.92 30.688 652.192V663.832H32.584C32.84 663.832 33.056 663.896 33.232 664.024C33.408 664.152 33.496 664.376 33.496 664.696C33.496 664.904 33.408 665.096 33.232 665.272C33.056 665.432 32.84 665.512 32.584 665.512H30.688V669.064C30.688 669.336 30.6 669.56 30.424 669.736C30.248 669.912 30.024 670 29.752 670ZM21.28 664.552L20.944 663.832H28.864V653.536L29.344 654.04L21.28 664.552Z" fill="black"/>
<circle cx="25" cy="485" r="25" fill="#89F8DA"/>
<path d="M24.2 493.12C23.08 493.12 22.072 492.88 21.176 492.4C20.296 491.904 19.6 491.232 19.088 490.384C18.576 489.536 18.32 488.576 18.32 487.504C18.32 487.232 18.4 487 18.56 486.808C18.72 486.616 18.936 486.52 19.208 486.52C19.48 486.52 19.696 486.616 19.856 486.808C20.016 487 20.096 487.232 20.096 487.504C20.096 488.24 20.272 488.904 20.624 489.496C20.976 490.072 21.456 490.536 22.064 490.888C22.688 491.224 23.376 491.392 24.128 491.392C25.376 491.392 26.352 491.048 27.056 490.36C27.76 489.656 28.112 488.752 28.112 487.648C28.112 486.864 27.944 486.184 27.608 485.608C27.272 485.016 26.816 484.56 26.24 484.24C25.664 483.904 25.016 483.736 24.296 483.736C24.04 483.736 23.824 483.648 23.648 483.472C23.472 483.296 23.384 483.072 23.384 482.8C23.384 482.544 23.472 482.328 23.648 482.152C23.824 481.976 24.04 481.888 24.296 481.888C24.856 481.888 25.368 481.752 25.832 481.48C26.312 481.192 26.696 480.816 26.984 480.352C27.272 479.888 27.416 479.376 27.416 478.816C27.416 477.968 27.128 477.264 26.552 476.704C25.976 476.128 25.208 475.84 24.248 475.84C23.576 475.84 22.976 475.976 22.448 476.248C21.92 476.504 21.504 476.856 21.2 477.304C20.912 477.736 20.768 478.232 20.768 478.792C20.768 479.064 20.68 479.296 20.504 479.488C20.344 479.664 20.136 479.752 19.88 479.752C19.608 479.752 19.392 479.664 19.232 479.488C19.072 479.296 18.992 479.072 18.992 478.816C18.992 477.936 19.216 477.144 19.664 476.44C20.128 475.72 20.752 475.16 21.536 474.76C22.32 474.344 23.224 474.136 24.248 474.136C25.176 474.136 26.008 474.344 26.744 474.76C27.496 475.16 28.088 475.72 28.52 476.44C28.968 477.144 29.192 477.936 29.192 478.816C29.192 479.36 29.056 479.888 28.784 480.4C28.528 480.912 28.184 481.376 27.752 481.792C27.32 482.192 26.848 482.504 26.336 482.728C27.152 482.968 27.832 483.336 28.376 483.832C28.92 484.328 29.32 484.912 29.576 485.584C29.832 486.24 29.96 486.928 29.96 487.648C29.96 488.704 29.704 489.648 29.192 490.48C28.696 491.296 28.008 491.944 27.128 492.424C26.248 492.888 25.272 493.12 24.2 493.12Z" fill="black"/>
<circle cx="25" cy="241" r="25" fill="#89F8DA"/>
<path d="M20.64 249C20.384 249 20.16 248.912 19.968 248.736C19.792 248.56 19.704 248.336 19.704 248.064C19.704 247.824 19.792 247.608 19.968 247.416L27.24 238.824C27.64 238.392 27.96 237.912 28.2 237.384C28.44 236.84 28.56 236.336 28.56 235.872C28.56 235.12 28.408 234.456 28.104 233.88C27.816 233.304 27.4 232.856 26.856 232.536C26.328 232.2 25.72 232.032 25.032 232.032C24.36 232.032 23.744 232.208 23.184 232.56C22.64 232.896 22.208 233.352 21.888 233.928C21.584 234.504 21.432 235.152 21.432 235.872C21.432 236.128 21.344 236.344 21.168 236.52C20.992 236.696 20.768 236.784 20.496 236.784C20.24 236.784 20.016 236.696 19.824 236.52C19.648 236.344 19.56 236.128 19.56 235.872C19.56 234.8 19.8 233.84 20.28 232.992C20.76 232.144 21.408 231.472 22.224 230.976C23.056 230.48 23.992 230.232 25.032 230.232C26.072 230.232 26.992 230.472 27.792 230.952C28.608 231.432 29.24 232.096 29.688 232.944C30.152 233.792 30.384 234.768 30.384 235.872C30.384 236.4 30.296 236.904 30.12 237.384C29.96 237.864 29.736 238.328 29.448 238.776C29.16 239.208 28.848 239.616 28.512 240L22.368 247.128H29.88C30.136 247.128 30.352 247.224 30.528 247.416C30.72 247.608 30.816 247.824 30.816 248.064C30.816 248.336 30.72 248.56 30.528 248.736C30.352 248.912 30.136 249 29.88 249H20.64Z" fill="black"/>
<ellipse cx="25" cy="922" rx="24" ry="25" fill="#89F8DA"/>
<path d="M25.632 933C24.48 933 23.448 932.736 22.536 932.208C21.624 931.664 20.896 930.936 20.352 930.024C19.824 929.096 19.56 928.056 19.56 926.904C19.56 926.632 19.648 926.408 19.824 926.232C20 926.056 20.216 925.968 20.472 925.968C20.744 925.968 20.968 926.056 21.144 926.232C21.336 926.408 21.432 926.632 21.432 926.904C21.432 927.704 21.616 928.424 21.984 929.064C22.352 929.704 22.848 930.208 23.472 930.576C24.112 930.944 24.832 931.128 25.632 931.128C26.432 931.128 27.152 930.944 27.792 930.576C28.432 930.208 28.936 929.704 29.304 929.064C29.672 928.424 29.856 927.704 29.856 926.904C29.856 926.104 29.672 925.384 29.304 924.744C28.936 924.104 28.432 923.6 27.792 923.232C27.152 922.864 26.432 922.68 25.632 922.68H21.432C21.16 922.68 20.936 922.592 20.76 922.416C20.584 922.224 20.496 922 20.496 921.744V915.168C20.496 914.912 20.584 914.696 20.76 914.52C20.936 914.328 21.16 914.232 21.432 914.232H29.856C30.112 914.232 30.328 914.328 30.504 914.52C30.696 914.696 30.792 914.912 30.792 915.168C30.792 915.424 30.704 915.648 30.528 915.84C30.352 916.016 30.128 916.104 29.856 916.104H22.344V920.808H25.632C26.8 920.808 27.84 921.08 28.752 921.624C29.664 922.152 30.384 922.88 30.912 923.808C31.456 924.72 31.728 925.752 31.728 926.904C31.728 928.056 31.456 929.096 30.912 930.024C30.384 930.936 29.664 931.664 28.752 932.208C27.84 932.736 26.8 933 25.632 933Z" fill="black"/>
<circle cx="25" cy="1176" r="25" fill="#89F8DA"/>
<path d="M25.2 1184C24.112 1184 23.144 1183.76 22.296 1183.28C21.448 1182.78 20.776 1182.11 20.28 1181.26C19.8 1180.42 19.56 1179.45 19.56 1178.36C19.56 1177.29 19.8 1176.33 20.28 1175.48C20.776 1174.62 21.448 1173.94 22.296 1173.46C23.144 1172.97 24.112 1172.72 25.2 1172.72C26.272 1172.72 27.232 1172.97 28.08 1173.46C28.928 1173.94 29.592 1174.62 30.072 1175.48C30.568 1176.33 30.816 1177.29 30.816 1178.36C30.816 1179.45 30.568 1180.42 30.072 1181.26C29.592 1182.11 28.928 1182.78 28.08 1183.28C27.232 1183.76 26.272 1184 25.2 1184ZM25.176 1182.27C25.912 1182.27 26.568 1182.1 27.144 1181.77C27.736 1181.43 28.2 1180.97 28.536 1180.38C28.872 1179.78 29.04 1179.11 29.04 1178.36C29.04 1177.61 28.872 1176.94 28.536 1176.34C28.2 1175.75 27.736 1175.29 27.144 1174.95C26.568 1174.6 25.912 1174.42 25.176 1174.42C24.44 1174.42 23.784 1174.6 23.208 1174.95C22.632 1175.29 22.176 1175.75 21.84 1176.34C21.504 1176.94 21.336 1177.61 21.336 1178.36C21.336 1179.11 21.504 1179.78 21.84 1180.38C22.176 1180.97 22.632 1181.43 23.208 1181.77C23.784 1182.1 24.44 1182.27 25.176 1182.27ZM20.256 1175.5L26.184 1165.76C26.392 1165.42 26.672 1165.26 27.024 1165.26C27.264 1165.26 27.472 1165.33 27.648 1165.47C27.824 1165.62 27.928 1165.8 27.96 1166.02C28.008 1166.25 27.968 1166.46 27.84 1166.67L23.88 1173.13L20.256 1175.5Z" fill="black"/>
<circle cx="25" cy="1418" r="25" fill="#89F8DA"/>
<path d="M21.3523 1426L29.1591 1410.56V1410.42H20.1591V1408.55H31.3409V1410.52L23.5682 1426H21.3523Z" fill="black"/>
<circle cx="25" cy="2287" r="25" fill="#89F8DA"/>
<path d="M20.9432 2277.55V2295H18.8295V2279.76H18.7273L14.4659 2282.59V2280.44L18.8295 2277.55H20.9432ZM31.6562 2295.24C30.3722 2295.24 29.2784 2294.89 28.375 2294.19C27.4716 2293.49 26.7813 2292.47 26.304 2291.13C25.8267 2289.79 25.5881 2288.17 25.5881 2286.27C25.5881 2284.39 25.8267 2282.78 26.304 2281.44C26.7869 2280.1 27.4801 2279.08 28.3835 2278.37C29.2926 2277.66 30.3835 2277.31 31.6562 2277.31C32.929 2277.31 34.017 2277.66 34.9205 2278.37C35.8295 2279.08 36.5227 2280.1 37 2281.44C37.483 2282.78 37.7244 2284.39 37.7244 2286.27C37.7244 2288.17 37.4858 2289.79 37.0085 2291.13C36.5312 2292.47 35.8409 2293.49 34.9375 2294.19C34.0341 2294.89 32.9403 2295.24 31.6562 2295.24ZM31.6562 2293.36C32.929 2293.36 33.9176 2292.75 34.6222 2291.52C35.3267 2290.3 35.679 2288.55 35.679 2286.27C35.679 2284.76 35.517 2283.47 35.1932 2282.41C34.875 2281.35 34.4148 2280.54 33.8125 2279.98C33.2159 2279.43 32.4972 2279.15 31.6562 2279.15C30.3949 2279.15 29.4091 2279.77 28.6989 2281.01C27.9886 2282.25 27.6335 2284.01 27.6335 2286.27C27.6335 2287.78 27.7926 2289.07 28.1108 2290.12C28.429 2291.18 28.8864 2291.99 29.483 2292.54C30.0852 2293.09 30.8097 2293.36 31.6562 2293.36Z" fill="black"/>
</svg>
